<svg width="27" height="15" fill="none" xmlns="http://www.w3.org/2000/svg"><path d="m26.785 13.47-.092-.168a13.489 13.489 0 0 0-2.68-2.98A15.088 15.088 0 0 1 22.887 9.2a.967.967 0 0 1-.215-1.182 9.844 9.844 0 0 1 1.248-1.777l.91-1.162c1.618-2.085 2.3-3.41 2.047-3.972l-.092-.129a.815.815 0 0 0-.409-.218 2.287 2.287 0 0 0-.9 0h-3.98a.442.442 0 0 0-.277 0h-.307a.506.506 0 0 0-.153.139.992.992 0 0 0-.154.238 22.97 22.97 0 0 1-1.494 3.059c-.348.556-.665.993-.962 1.46a7 7 0 0 1-.747.883 5.85 5.85 0 0 1-.542.477c-.153.119-.276.169-.358.149l-.235-.05a.924.924 0 0 1-.318-.338 1.321 1.321 0 0 1-.163-.526V1.614a3.17 3.17 0 0 0 0-.616 2.186 2.186 0 0 0-.144-.437.74.74 0 0 0-.286-.338 1.909 1.909 0 0 0-.512-.178 9.94 9.94 0 0 0-1.882 0 9.287 9.287 0 0 0-3.346.308c-.203.1-.384.239-.532.407-.174.198-.195.307-.072.327.235.011.465.069.677.17.21.1.398.242.55.416l.083.16c.092.203.16.416.204.635.061.328.102.66.123.993.041.565.041 1.132 0 1.698 0 .476-.092.844-.133 1.102a2 2 0 0 1-.276.675c-.045.108-.1.21-.164.308l-.072.07a1.24 1.24 0 0 1-.378.07.97.97 0 0 1-.41-.23 3.623 3.623 0 0 1-.583-.525 7.732 7.732 0 0 1-.675-.924c-.288-.46-.551-.934-.788-1.42l-.235-.387-.583-1.113c-.238-.465-.45-.942-.635-1.43A.907.907 0 0 0 5.38.92h-.072a.882.882 0 0 0-.184-.16 1.657 1.657 0 0 0-.369-.09L.918.7A1.052 1.052 0 0 0 .12.978H.008a.78.78 0 0 0 0 .219c.011.125.039.248.082.367a36.205 36.205 0 0 0 1.84 3.724 43.045 43.045 0 0 0 1.71 2.86c.48.725 1.022 1.41 1.513 2.056.492.645.88 1.062 1.024 1.24l.378.408.348.338c.323.28.665.539 1.023.774.473.335.965.644 1.474.924.58.312 1.2.552 1.842.715a6.504 6.504 0 0 0 2.066.278h1.617c.28-.003.547-.11.747-.298v-.07a1.03 1.03 0 0 0 .102-.248 2.21 2.21 0 0 0 0-.367 4.54 4.54 0 0 1 .092-1.053c.042-.245.12-.483.236-.705.077-.15.177-.287.297-.407l.235-.199h.112a.937.937 0 0 1 .799.209c.317.228.602.495.849.794.266.308.593.665.962 1.043.309.325.652.617 1.023.874l.286.159c.228.129.473.229.727.298.249.087.517.11.777.069l3.633-.1c.284.018.567-.04.819-.168a.663.663 0 0 0 .347-.368.868.868 0 0 0 0-.456 1.514 1.514 0 0 0-.102-.368l-.082-.05Z" fill="#fff"/></svg>