<svg width="152" height="152" viewBox="0 0 152 152" fill="none" xmlns="http://www.w3.org/2000/svg">
<rect width="152" height="152" fill="black"/>
<path d="M60.785 57H62.3123C68.1938 57.365 72.8079 59.2552 75.7324 63.153C78.7002 59.2422 83.3144 57.3389 89.2284 57H90.6906C103.808 58.069 109.786 69.3842 120.26 74.1945C121.889 75.0852 123.661 75.5304 125.449 75.4981C128.135 75.1461 129.846 71.8741 129.5 68.224C129.131 64.3132 125.947 60.9108 122.394 62.788C121.928 63.0513 121.5 63.4035 121.127 63.8309C120.856 64.1307 120.553 64.9129 119.86 64.6261C119.21 63.9743 119.86 63.0226 120.195 62.4751C120.837 61.1024 121.808 59.9947 122.981 59.2969C124.154 58.5991 125.475 58.3438 126.77 58.5643C132.868 59.0858 138.327 65.5256 137.396 75.2765C135.316 89.7856 124.29 93.6964 111.216 95H106.959C95.5505 94.4393 84.607 89.4035 75.7974 80.6604C66.9227 89.3814 55.9414 94.4118 44.4946 95H40.3136C27.1426 93.6051 16.0079 89.7856 14.069 74.8463C13.3325 64.2089 18.5966 58.9815 24.7055 58.447C26.0119 58.2235 27.3439 58.4768 28.5295 59.1739C29.7151 59.8711 30.6996 60.9802 31.356 62.3578C31.6593 62.9575 32.2225 63.883 31.6918 64.6C31.0311 64.7434 30.7061 64.1177 30.4245 63.8048C30.0285 63.3081 29.5547 62.9107 29.0305 62.6355C28.5062 62.3603 27.9419 62.2128 27.3701 62.2014C23.1891 62.0189 20.7845 67.6113 22.4526 72.1218C22.7796 72.997 23.2862 73.7577 23.9247 74.3324C24.5633 74.907 25.3128 75.2768 26.1028 75.4069C27.8896 75.4217 29.6584 74.9772 31.291 74.1033C32.7473 73.4311 34.1503 72.6021 35.4828 71.6264C43.4439 66.0731 49.672 58.1863 60.785 57V57Z" fill="white"/>
</svg>
